<svg width="13" height="13" viewBox="0 0 13 13" fill="none" xmlns="http://www.w3.org/2000/svg">
<path d="M1.20601 0C0.690963 0 0.273438 0.417525 0.273438 0.932568C0.273438 1.44761 0.690962 1.86514 1.20601 1.86514H12.0673C12.5824 1.86514 12.9999 1.44761 12.9999 0.932568C12.9999 0.417525 12.5824 0 12.0673 0H1.20601ZM1.20601 5.53945C0.690963 5.53945 0.273438 5.95698 0.273438 6.47202C0.273438 6.98707 0.690962 7.40459 1.20601 7.40459H12.0673C12.5824 7.40459 12.9999 6.98707 12.9999 6.47202C12.9999 5.95698 12.5824 5.53945 12.0673 5.53945H1.20601ZM1.20601 11.1349C0.690963 11.1349 0.273438 11.5524 0.273438 12.0674C0.273438 12.5825 0.690962 13 1.20601 13H12.0673C12.5824 13 12.9999 12.5825 12.9999 12.0674C12.9999 11.5524 12.5824 11.1349 12.0673 11.1349H1.20601Z" fill="white"/>
</svg>
